<?xml version="1.0" encoding="utf-8"?>
<!-- Generator: Adobe Illustrator 23.0.5, SVG Export Plug-In . SVG Version: 6.00 Build 0)  -->
<svg version="1.1" id="Capa_1" xmlns="http://www.w3.org/2000/svg" xmlns:xlink="http://www.w3.org/1999/xlink" x="0px" y="0px"
	 viewBox="0 0 48 48" style="enable-background:new 0 0 48 48;" xml:space="preserve">
<style type="text/css">
	.st0{fill:#03264C;}
</style>
<path class="st0" d="M22.6,38.3h2.8v-2.6c2-0.2,3.6-0.9,4.8-1.9c1.1-1,1.7-2.4,1.7-4.1c0-1.7-0.5-3.1-1.4-4.2c-1-1.1-2.6-2.1-4.9-3
	c-1.9-0.8-3.3-1.5-4.2-2.1c-0.9-0.6-1.3-1.5-1.3-2.6c0-1,0.4-1.8,1.1-2.4s1.8-0.9,3.1-0.9c1,0,1.9,0.2,2.6,0.7
	c0.7,0.5,1.4,1.2,1.9,2.1l2.4-1.1c-0.6-1.2-1.3-2.1-2.3-2.8c-0.9-0.7-2-1.1-3.3-1.2V9.7h-2.8v2.5c-1.7,0.2-3,0.9-4,1.9
	c-1,1-1.5,2.3-1.5,3.8c0,1.6,0.5,2.9,1.5,3.9s2.5,1.9,4.5,2.7c2.2,0.9,3.8,1.8,4.6,2.5s1.3,1.7,1.3,2.8c0,1.1-0.4,1.9-1.3,2.6
	c-0.9,0.7-2,1-3.3,1c-1.3,0-2.5-0.4-3.5-1.1c-1-0.7-1.7-1.7-2.1-3l-2.5,0.9c0.7,1.5,1.6,2.7,2.6,3.6c1,0.9,2.3,1.5,3.8,1.9V38.3z
	 M24,44c-2.7,0-5.3-0.5-7.8-1.6c-2.4-1-4.6-2.5-6.4-4.3s-3.3-3.9-4.3-6.4S4,26.7,4,24c0-2.8,0.5-5.4,1.6-7.8s2.5-4.6,4.3-6.4
	s3.9-3.2,6.4-4.3S21.3,4,24,4c2.8,0,5.4,0.5,7.8,1.6s4.6,2.5,6.4,4.3s3.2,3.9,4.3,6.4c1.1,2.4,1.6,5,1.6,7.8c0,2.7-0.5,5.3-1.6,7.8
	c-1,2.4-2.5,4.6-4.3,6.4s-3.9,3.3-6.4,4.3C29.4,43.5,26.8,44,24,44z M24,41c4.7,0,8.8-1.7,12-5c3.3-3.3,5-7.3,5-12
	c0-4.7-1.6-8.8-5-12c-3.3-3.3-7.3-5-12-5c-4.7,0-8.7,1.7-12,5s-5,7.3-5,12c0,4.7,1.7,8.7,5,12C15.3,39.3,19.3,41,24,41z"/>
</svg>
