<?xml version="1.0" encoding="utf-8"?>
<!-- Generator: Adobe Illustrator 23.0.5, SVG Export Plug-In . SVG Version: 6.00 Build 0)  -->
<svg version="1.1" id="Capa_1" xmlns="http://www.w3.org/2000/svg" xmlns:xlink="http://www.w3.org/1999/xlink" x="0px" y="0px"
	 viewBox="0 0 48 48" style="enable-background:new 0 0 48 48;" xml:space="preserve">
<style type="text/css">
	.st0{fill:#03264C;}
</style>
<path class="st0" d="M24,44c-4.7-1.2-8.5-3.9-11.5-8.1S8,27,8,21.9V10l16-6l16,6v11.9c0,5.1-1.5,9.7-4.5,14S28.7,42.8,24,44z
	 M24,40.9c3.5-1.2,6.5-3.3,8.8-6.4c2.3-3.1,3.7-6.6,4.1-10.5H24V7.2l-13,4.8v9.8c0,0.4,0,0.7,0,1s0.1,0.6,0.1,1.1H24V40.9z"/>
</svg>
