<?xml version="1.0" encoding="utf-8"?>
<!-- Generator: Adobe Illustrator 23.0.5, SVG Export Plug-In . SVG Version: 6.00 Build 0)  -->
<svg version="1.1" id="Capa_1" xmlns="http://www.w3.org/2000/svg" xmlns:xlink="http://www.w3.org/1999/xlink" x="0px" y="0px"
	 viewBox="0 0 48 48" style="enable-background:new 0 0 48 48;" xml:space="preserve">
<style type="text/css">
	.st0{fill:#03264C;}
</style>
<path class="st0" d="M19,20.6l5-2.5l5,2.5V9H19V20.6z M14,34v-4h10v4H14z M9,42c-0.8,0-1.5-0.3-2.1-0.9C6.3,40.5,6,39.8,6,39V9
	c0-0.8,0.3-1.5,0.9-2.1S8.2,6,9,6h30c0.8,0,1.5,0.3,2.1,0.9C41.7,7.5,42,8.2,42,9v30c0,0.8-0.3,1.5-0.9,2.1C40.5,41.7,39.8,42,39,42
	H9z M9,9v30V9z M9,39h30V9h-7v16.5l-8-4l-8,4V9H9V39z"/>
</svg>
